<svg xmlns="http://www.w3.org/2000/svg" width="225.818" height="216.86" viewBox="0 0 225.818 216.86">
  <g id="Group_1853" data-name="Group 1853" transform="translate(-848 -1683)">
    <g id="Group_1795" data-name="Group 1795" transform="translate(848 1682.999)">
      <path id="Path_2043" data-name="Path 2043" d="M5.436,165.343l107.473-46.969,107.472,46.969-107.472,49.08ZM0,165.3l112.909,51.563,112.55-51.4.358-.164L112.909,115.954Z" fill="#862dd8"/>
      <path id="Path_2044" data-name="Path 2044" d="M5.436,107.366,112.909,60.4l107.472,46.968-107.472,49.08ZM0,107.322l112.909,51.562,112.55-51.4.358-.164L112.909,57.977Z" fill="#4eceff"/>
      <path id="Path_2045" data-name="Path 2045" d="M5.436,49.39,112.909,2.421,220.382,49.39,112.909,98.47ZM112.909,0,0,49.345l112.909,51.563,112.55-51.4.359-.164Z" fill="#4adca9"/>
    </g>
  </g>
</svg>
